<?xml version="1.0" standalone="no"?>
<!DOCTYPE svg PUBLIC "-//W3C//DTD SVG 20010904//EN"
 "http://www.w3.org/TR/2001/REC-SVG-20010904/DTD/svg10.dtd">
<svg version="1.0" xmlns="http://www.w3.org/2000/svg"
 width="1200.000000pt" height="476.000000pt" viewBox="0 0 1200.000000 476.000000"
 preserveAspectRatio="xMidYMid meet">

<g transform="translate(0.000000,476.000000) scale(0.100000,-0.100000)"
fill="#000000" stroke="none">
<path d="M4405 4185 l-260 -474 -26 82 c-32 102 -64 165 -124 245 -157 208
-437 311 -771 282 -155 -13 -257 -39 -359 -90 -245 -121 -373 -332 -420 -688
-17 -129 -19 -393 -5 -497 25 -171 80 -320 164 -441 l45 -64 -1274 0 c-701 0
-1275 -3 -1275 -6 0 -4 203 -461 452 -1015 l451 -1009 551 0 551 0 90 200 c50
110 93 200 96 200 4 0 19 -18 34 -40 43 -62 197 -205 275 -255 95 -62 197
-109 305 -141 73 -22 117 -27 235 -31 208 -7 360 25 525 111 33 17 63 32 68
34 4 2 7 -19 7 -47 l0 -51 1588 2 c1493 3 1589 4 1615 21 33 22 37 21 37 -3 0
-20 7 -20 810 -20 l810 0 0 50 c0 28 2 50 4 50 2 0 48 -22 102 -49 189 -95
331 -127 522 -118 152 7 248 32 395 105 l117 59 0 -229 c0 -125 3 -228 8 -228
4 0 229 96 499 212 l493 213 0 256 0 255 78 34 c176 78 311 198 382 342 54
111 73 204 68 346 -2 61 -2 112 -1 112 1 0 25 -12 55 -27 46 -25 64 -28 143
-28 76 0 99 4 146 26 72 34 134 96 168 168 22 47 26 70 26 141 0 76 -4 93 -33
152 -58 117 -152 178 -287 186 -66 3 -91 0 -140 -19 -78 -29 -165 -114 -191
-185 l-17 -50 -66 66 c-102 102 -229 157 -415 180 -44 5 -268 10 -498 10
l-418 0 0 -51 c0 -28 -3 -49 -7 -47 -101 52 -196 92 -268 114 -82 25 -104 28
-255 28 -146 0 -172 -2 -224 -22 -33 -12 -61 -22 -63 -22 -3 0 11 22 31 49 46
63 101 179 123 261 13 49 17 103 17 215 -1 130 -4 163 -27 250 l-27 100 0 477
0 478 -377 0 c-279 0 -403 -4 -473 -15 -139 -21 -225 -53 -287 -109 l-23 -19
0 71 0 72 -187 0 c-378 0 -621 -44 -838 -150 -136 -67 -265 -185 -336 -306
l-24 -42 -125 272 c-68 149 -141 307 -161 351 l-37 80 -20 -45 c-11 -25 -75
-157 -142 -295 l-122 -250 -142 284 -143 285 -138 -270 c-288 -562 -281 -550
-298 -523 -8 13 -121 222 -252 464 -130 242 -240 443 -243 447 -4 4 -124 -206
-267 -467z m-69 -893 l-324 -649 -108 -69 c-59 -38 -112 -71 -117 -73 -5 -2
36 84 91 190 55 107 252 496 438 864 l339 670 3 -142 3 -142 -325 -649z m-861
842 c74 -19 115 -42 135 -76 19 -35 4 -78 -32 -96 -23 -11 -35 -10 -85 9 -37
13 -93 23 -154 26 -294 17 -457 -100 -529 -380 -31 -123 -45 -326 -31 -452 17
-150 36 -206 121 -355 11 -19 20 -45 20 -57 0 -40 -49 -70 -95 -59 -47 12
-130 178 -160 321 -39 183 -26 500 26 671 63 208 189 353 361 418 119 45 313
59 423 30z m4165 -21 c-118 -129 -123 -133 -161 -133 -132 0 -314 -45 -448
-111 -232 -114 -351 -308 -351 -570 0 -202 52 -350 162 -465 47 -49 61 -71 61
-94 0 -41 -29 -70 -68 -70 -50 0 -170 131 -224 242 -59 123 -72 182 -78 359
-7 190 8 270 72 404 137 287 506 471 944 474 l125 1 -34 -37z m1190 31 c0 -3
-25 -36 -55 -75 l-56 -69 -218 0 c-190 0 -227 -3 -282 -20 -186 -57 -280 -202
-281 -430 0 -122 12 -184 49 -258 30 -59 26 -75 -20 -102 -96 -54 -203 192
-182 420 9 110 23 166 61 248 60 132 189 235 344 276 42 11 126 15 348 15 160
1 292 -1 292 -5z m-3285 -497 c-26 -56 -141 -305 -256 -552 l-210 -451 -112
-71 c-61 -40 -113 -71 -114 -69 -2 2 162 362 364 801 l368 798 3 -178 2 -177
-45 -101z m488 -184 l-128 -282 -3 177 -3 177 128 282 128 282 3 -177 3 -177
-128 -282z m-2558 491 c104 -31 151 -60 224 -140 64 -69 108 -155 127 -243 23
-111 37 -101 -151 -101 l-165 0 0 24 c0 31 -38 85 -78 113 -64 42 -185 40
-236 -5 -41 -37 -46 -71 -46 -304 0 -203 2 -226 20 -255 38 -62 56 -68 247
-71 l173 -4 0 96 0 96 -35 0 c-35 0 -35 0 -35 45 l0 45 160 0 160 0 0 -300 0
-300 -314 0 c-286 0 -320 2 -379 20 -244 76 -365 353 -329 756 25 270 107 446
237 509 108 52 281 59 420 19z m5235 -134 l0 -160 -120 0 c-136 0 -169 -10
-190 -60 -23 -54 9 -98 82 -114 48 -11 144 -111 185 -193 34 -70 37 -82 41
-188 4 -96 1 -124 -17 -182 -37 -119 -115 -199 -239 -247 -53 -19 -79 -21
-354 -24 l-298 -3 0 160 0 161 220 0 221 0 33 34 c42 41 51 68 34 103 -15 32
-41 47 -120 68 -106 28 -193 124 -217 237 -15 68 -13 223 3 283 29 111 93 193
186 240 76 39 108 43 338 44 l212 1 0 -160z m-1180 -20 l0 -160 -154 0 c-85 0
-166 -4 -180 -10 -74 -28 -81 -157 -9 -189 14 -7 88 -11 183 -11 l160 0 0
-115 0 -115 -163 0 c-181 0 -198 -5 -223 -66 -19 -44 -8 -89 28 -119 29 -24
34 -25 194 -25 l164 0 0 -170 0 -170 -57 0 c-156 0 -347 40 -461 96 -201 98
-292 268 -292 544 0 255 69 401 244 518 133 89 329 147 509 151 l57 1 0 -160z
m-2652 -305 c111 -223 202 -413 201 -423 0 -9 -42 -107 -93 -217 l-92 -200
-427 -3 -427 -2 312 625 c172 344 315 625 318 625 3 0 96 -182 208 -405z m881
-123 l128 -283 138 303 c75 167 140 306 144 311 4 4 115 -223 246 -505 131
-282 242 -521 247 -530 8 -17 -11 -18 -327 -18 l-335 0 62 125 c34 68 59 127
55 131 -3 4 -57 -22 -119 -58 l-112 -65 -108 64 c-60 35 -113 61 -118 58 -5
-3 17 -59 50 -125 33 -66 60 -122 60 -125 0 -3 -54 -5 -119 -5 l-120 0 -97
178 c-53 97 -103 189 -112 203 -13 24 -8 40 128 345 78 175 145 323 148 328 3
5 12 -4 19 -20 7 -16 71 -156 142 -312z m1754 114 c11 -29 -17 -36 -144 -36
-128 0 -147 5 -135 35 8 21 271 22 279 1z m-3523 -63 c0 -3 -23 -37 -52 -75
l-52 -68 -193 0 -193 0 0 -70 0 -70 35 0 35 0 0 -76 0 -76 -47 6 c-63 9 -132
44 -157 79 -19 25 -21 46 -24 178 -2 82 -1 156 2 164 5 13 54 15 326 15 176 0
320 -3 320 -7z m3930 -298 c21 -25 119 -86 178 -111 l57 -23 -187 -1 -188 0 0
-183 0 -183 -75 -74 -75 -74 0 332 0 332 139 0 c109 0 141 -3 151 -15z m-415
-71 c12 -12 13 -19 4 -30 -17 -21 -267 -20 -275 1 -14 36 14 45 137 45 95 0
121 -3 134 -16z m-2297 -402 c-50 -1 -93 -1 -95 2 -2 2 17 46 43 97 l47 94 47
-95 48 -95 -90 -3z m6419 -218 c94 -45 143 -131 143 -249 0 -87 -24 -150 -80
-206 -56 -56 -123 -81 -215 -80 -113 1 -210 62 -253 160 -20 45 -22 182 -3
234 14 42 57 96 101 127 75 54 212 60 307 14z m-8222 -64 c78 -25 195 -81 212
-102 40 -48 9 -118 -52 -118 -18 0 -62 13 -96 30 -102 48 -192 63 -333 57
-171 -7 -288 -50 -419 -152 -187 -147 -293 -420 -257 -661 32 -210 142 -388
313 -501 94 -63 111 -115 47 -148 -42 -22 -55 -19 -123 27 -336 227 -481 622
-363 994 42 130 108 236 216 344 129 129 269 208 434 246 96 22 332 13 421
-16z m6020 0 c78 -25 195 -81 212 -102 41 -48 9 -118 -53 -118 -19 0 -57 12
-85 26 -123 62 -335 83 -478 48 -208 -52 -376 -184 -467 -369 -95 -193 -108
-382 -39 -578 47 -137 151 -269 275 -352 67 -44 91 -78 83 -116 -4 -15 -62
-49 -84 -49 -21 0 -158 101 -218 162 -109 109 -181 231 -227 385 -23 75 -27
107 -28 223 -1 157 14 228 75 358 116 250 346 437 613 498 96 22 332 13 421
-16z m-2121 1 c-5 -6 -52 -39 -104 -75 l-95 -66 -225 0 c-124 0 -245 -5 -270
-11 -67 -15 -140 -55 -191 -105 -84 -82 -119 -182 -119 -339 0 -107 14 -179
51 -262 l23 -53 -24 -25 c-13 -14 -33 -25 -45 -25 -52 0 -109 81 -141 197 -21
78 -21 267 0 357 48 206 191 351 393 400 69 17 764 23 747 7z m-6084 -31 c0
-25 0 -25 47 2 47 27 39 18 -63 -65 l-82 -67 -242 0 c-226 0 -242 -1 -237 -17
3 -10 131 -316 286 -681 l281 -663 -38 -70 c-20 -38 -40 -69 -44 -69 -4 0
-666 1536 -705 1637 -4 10 78 13 396 13 394 0 401 0 401 -20z m1370 -3 c0 -17
-19 -35 -77 -75 l-78 -52 -242 0 -243 0 -2 -245 -3 -245 -83 218 -82 217 0
103 0 102 405 0 405 0 0 -23z m2097 8 c70 -49 -11 -146 -104 -124 -21 5 -149
9 -285 9 l-248 0 -1 -297 -1 -298 -18 80 c-24 105 -43 154 -90 243 l-40 74 0
164 0 164 383 0 c320 0 386 -2 404 -15z m760 -60 l-42 -75 -127 0 -128 0 -1
-137 c0 -126 -2 -135 -14 -102 -22 61 -56 122 -96 175 -38 49 -39 53 -39 132
l0 82 244 0 245 0 -42 -75z m718 0 l-109 -75 -243 0 -243 0 0 -240 0 -240 -25
0 -25 0 0 315 0 315 377 0 377 0 -109 -75z m1465 0 l-74 -75 -128 0 c-71 0
-128 2 -128 4 0 2 9 26 21 53 11 26 25 58 30 71 8 22 11 22 181 22 l172 0 -74
-75z m710 0 l-74 -75 -148 0 -148 0 0 -240 0 -240 -192 0 -193 0 80 80 c71 72
83 80 117 80 l38 0 0 235 0 235 297 0 297 0 -74 -75z m2222 65 c56 -16 76 -70
42 -118 -15 -22 -17 -22 -285 -22 l-269 0 -1 -292 0 -293 -19 85 c-23 107 -41
156 -90 248 l-40 74 0 164 0 164 313 0 c185 0 327 -4 349 -10z m-9032 -142 l0
-123 -183 -191 c-100 -106 -183 -191 -185 -189 -1 1 39 103 89 226 l91 224 86
88 c48 48 90 87 94 87 5 0 8 -55 8 -122z m1805 -3 c32 -9 86 -27 119 -41 34
-14 78 -29 98 -34 46 -9 131 -80 192 -158 304 -397 126 -962 -352 -1120 -100
-33 -290 -37 -391 -9 -397 111 -619 523 -491 909 72 214 260 390 482 448 92
24 259 26 343 5z m6080 -18 c187 -69 245 -106 328 -215 348 -452 56 -1108
-512 -1149 -156 -11 -280 21 -408 105 -340 224 -433 651 -213 986 95 145 226
238 405 287 105 29 303 22 400 -14z m-8305 -277 c0 -154 4 -280 8 -280 5 0
103 99 218 220 115 121 209 220 210 220 0 0 95 -99 209 -220 140 -147 212
-215 217 -207 4 7 8 132 8 280 l0 267 220 0 c121 0 220 -3 219 -7 0 -5 -125
-303 -278 -663 l-277 -655 -72 -3 -71 -3 -90 178 -89 178 -88 -178 -89 -178
-69 3 -69 3 -279 659 c-153 362 -278 660 -278 662 0 2 99 4 220 4 l220 0 0
-280z m3543 264 c209 -46 328 -173 344 -365 8 -95 -15 -156 -82 -224 -58 -57
-168 -119 -234 -130 -23 -4 -41 -10 -41 -15 0 -4 75 -133 166 -286 91 -154
170 -287 175 -297 9 -16 -4 -17 -221 -17 l-230 0 0 265 0 265 -100 0 -100 0 0
-255 0 -255 -130 0 -130 0 0 665 0 665 256 0 c197 0 271 -4 327 -16z m747
-224 l0 -240 95 0 95 0 0 235 c0 182 3 237 13 241 7 2 108 3 224 2 l211 -3
-174 -310 c-95 -170 -173 -315 -174 -322 0 -6 70 -154 156 -330 86 -175 160
-328 165 -340 l9 -23 -215 0 -215 0 0 258 0 257 -95 -3 -95 -3 0 -255 0 -254
-110 0 -110 0 0 665 0 665 110 0 110 0 0 -240z m1671 193 c-10 -27 -38 -94
-61 -149 l-42 -102 -80 -4 c-75 -3 -81 -5 -109 -36 -48 -54 -34 -90 60 -149
79 -51 111 -78 153 -135 91 -120 110 -338 44 -483 -46 -101 -136 -174 -254
-207 -56 -15 -104 -18 -309 -18 l-243 0 -80 159 -79 159 62 6 c34 3 157 8 272
11 183 4 213 7 235 24 36 26 47 73 26 106 -19 29 -35 37 -117 59 -147 41 -229
177 -229 381 0 179 60 303 178 373 77 44 120 51 364 51 l228 1 -19 -47z m477
-193 l-3 -240 222 0 223 0 2 238 3 237 133 3 132 3 0 -666 0 -665 -135 0 -135
0 0 258 0 257 -220 -3 -220 -3 0 -254 0 -255 -140 0 -140 0 0 639 c0 392 4
650 10 665 l10 26 130 0 131 0 -3 -240z m3143 209 c139 -65 209 -198 210 -399
1 -74 -4 -108 -21 -153 -29 -76 -103 -153 -191 -196 -70 -34 -194 -70 -244
-71 -16 0 -36 -4 -42 -8 -10 -6 -13 -80 -15 -291 l-3 -283 -150 -59 c-82 -32
-153 -59 -157 -59 -5 0 -8 349 -8 776 l0 775 283 -3 c280 -3 282 -3 338 -29z
m-3441 -381 l-1 -303 -24 58 c-13 32 -42 85 -65 118 -26 39 -40 70 -40 91 0
27 117 338 127 338 2 0 3 -136 3 -302z m-2102 -682 l-3 -175 -72 126 -73 127
0 124 0 124 58 63 c32 34 65 77 73 96 13 32 14 22 17 -138 1 -94 1 -251 0
-347z m4902 -64 l0 -408 -72 -98 -73 -97 -3 305 -2 304 34 59 c40 67 92 214
102 291 3 28 8 52 10 52 2 0 4 -184 4 -408z m-6075 -252 l-75 -75 0 167 0 168
30 49 c37 60 83 183 102 271 12 61 13 48 16 -220 l2 -285 -75 -75z m995 548
l-1 -73 -24 55 c-33 76 -32 81 18 89 4 0 7 -32 7 -71z m1343 -17 c29 -22 77
-51 106 -65 33 -15 49 -27 40 -30 -7 -2 -101 -6 -207 -9 l-193 -4 -25 49 c-14
27 -29 60 -34 74 l-10 24 136 0 135 0 52 -39z m-1848 -500 l-35 -36 0 252 0
251 33 28 32 27 3 -244 2 -243 -35 -35z m1083 8 l-23 -31 -3 248 c-2 245 -2
248 20 271 l23 25 3 -241 c2 -237 2 -242 -20 -272z m2355 -41 c-37 -37 -71
-68 -75 -68 -5 0 -8 107 -8 237 l0 238 73 73 72 73 3 -243 2 -242 -67 -68z
m-653 194 l0 -117 -62 -72 -63 -71 -3 70 c-3 68 -2 71 42 136 24 37 53 91 63
120 10 28 19 52 20 52 2 0 3 -53 3 -118z"/>
<path d="M4550 3139 c-63 -121 -116 -227 -118 -235 -3 -12 33 -14 237 -14 133
0 241 3 241 6 0 8 -230 447 -238 456 -4 4 -59 -92 -122 -213z m211 -166 c44
-25 82 -50 85 -55 3 -4 -76 -8 -175 -8 -100 0 -181 3 -181 8 1 9 160 101 178
101 7 1 49 -20 93 -46z"/>
<path d="M11405 2372 c-49 -23 -99 -78 -115 -127 -18 -56 -8 -137 23 -184 57
-85 191 -114 274 -59 116 77 117 279 2 355 -53 35 -128 41 -184 15z m171 -67
c20 -20 25 -33 22 -67 -2 -35 -9 -46 -35 -64 l-31 -21 34 -61 35 -62 -38 0
c-37 0 -40 3 -76 65 -26 45 -43 65 -57 65 -18 0 -20 -7 -20 -65 0 -58 -2 -65
-20 -65 -19 0 -20 7 -20 150 l0 150 90 0 c84 0 93 -2 116 -25z"/>
<path d="M11430 2240 l0 -40 45 0 c43 0 45 1 45 30 0 24 -6 33 -26 40 -51 20
-64 14 -64 -30z"/>
<path d="M3114 1880 c-108 -23 -200 -95 -250 -195 -26 -53 -29 -71 -29 -150 0
-82 3 -97 33 -157 59 -119 164 -188 302 -196 107 -6 175 21 256 102 104 104
135 244 83 381 -56 149 -238 248 -395 215z m243 -89 c46 -34 80 -76 114 -141
34 -67 33 -185 -2 -260 -31 -66 -94 -131 -157 -162 -66 -32 -188 -32 -250 0
-24 13 -52 32 -62 42 -22 22 -27 79 -8 98 16 16 64 15 118 -4 80 -28 169 1
210 68 43 71 14 197 -55 242 -52 34 -55 104 -6 131 38 21 53 18 98 -14z"/>
<path d="M9114 1880 c-108 -23 -200 -95 -250 -195 -26 -53 -29 -71 -29 -150 0
-82 3 -97 33 -157 59 -119 164 -188 302 -196 107 -6 175 21 256 102 104 104
135 244 83 381 -56 149 -238 248 -395 215z m243 -89 c46 -34 80 -76 114 -141
34 -67 33 -185 -2 -260 -31 -66 -94 -131 -157 -162 -66 -32 -188 -32 -250 0
-24 13 -52 32 -62 42 -22 22 -27 79 -8 98 16 16 64 15 118 -4 80 -28 169 1
210 68 43 71 14 197 -55 242 -52 34 -55 104 -6 131 38 21 53 18 98 -14z"/>
<path d="M4337 1903 c-7 -7 -10 -167 -3 -174 2 -2 52 -2 111 1 102 5 108 7
131 33 42 49 28 108 -31 133 -35 14 -196 20 -208 7z"/>
<path d="M10397 1903 c-4 -3 -7 -59 -7 -124 0 -97 3 -118 16 -123 48 -18 137
12 159 55 19 37 19 102 -1 140 -8 17 -30 37 -49 45 -36 14 -107 19 -118 7z"/>
</g>
</svg>
